<svg width="32" height="32" viewBox="0 0 32 32" fill="none" xmlns="http://www.w3.org/2000/svg">
<path d="M4 0.5H28C29.933 0.5 31.5 2.067 31.5 4V28C31.5 29.933 29.933 31.5 28 31.5H4C2.067 31.5 0.5 29.933 0.5 28V4C0.5 2.067 2.067 0.5 4 0.5Z" fill="white"/>
<path d="M4 0.5H28C29.933 0.5 31.5 2.067 31.5 4V28C31.5 29.933 29.933 31.5 28 31.5H4C2.067 31.5 0.5 29.933 0.5 28V4C0.5 2.067 2.067 0.5 4 0.5Z" stroke="#DDECF4"/>
<path fill-rule="evenodd" clip-rule="evenodd" d="M10 9.39844C10.2761 9.39844 10.5 9.6223 10.5 9.89844V20.8318C10.5 21.0267 10.5004 21.1428 10.5074 21.2289C10.5117 21.2815 10.5174 21.3035 10.5192 21.3095C10.5349 21.3392 10.5592 21.3635 10.589 21.3792C10.5949 21.3811 10.617 21.3867 10.6695 21.391C10.7556 21.398 10.8717 21.3984 11.0667 21.3984H22C22.2761 21.3984 22.5 21.6223 22.5 21.8984C22.5 22.1746 22.2761 22.3984 22 22.3984H11.0492C10.8775 22.3984 10.7199 22.3985 10.5881 22.3877C10.446 22.3761 10.2906 22.3495 10.137 22.2713C9.91749 22.1594 9.73901 21.9809 9.62716 21.7614C9.54893 21.6079 9.52235 21.4524 9.51074 21.3104C9.49998 21.1786 9.49999 21.0209 9.5 20.8492L9.5 9.89844C9.5 9.6223 9.72386 9.39844 10 9.39844ZM10.5873 21.3786C10.5873 21.3786 10.5876 21.3787 10.5882 21.379L10.5873 21.3786ZM10.5198 21.3112C10.5198 21.3112 10.5197 21.3109 10.5195 21.3102L10.5198 21.3112ZM18.8333 12.5651C18.8333 12.289 19.0572 12.0651 19.3333 12.0651H22C22.2761 12.0651 22.5 12.289 22.5 12.5651V15.2318C22.5 15.5079 22.2761 15.7318 22 15.7318C21.7239 15.7318 21.5 15.5079 21.5 15.2318V13.7722L18.7212 16.5511C18.6636 16.6087 18.6012 16.6711 18.5427 16.7207C18.4765 16.7769 18.3833 16.8454 18.2575 16.8862C18.0901 16.9406 17.9099 16.9406 17.7425 16.8862C17.6167 16.8454 17.5235 16.7769 17.4573 16.7207C17.3988 16.6711 17.3364 16.6087 17.2788 16.5511L16.0236 15.2958C16.0153 15.2875 16.0074 15.2796 16 15.2722C15.9926 15.2796 15.9847 15.2875 15.9764 15.2958L13.0202 18.252C12.825 18.4473 12.5084 18.4473 12.3131 18.252C12.1179 18.0567 12.1179 17.7401 12.3131 17.5449L15.2789 14.5791C15.3364 14.5215 15.3989 14.4591 15.4573 14.4095C15.5235 14.3533 15.6167 14.2848 15.7425 14.244C15.9099 14.1896 16.0901 14.1896 16.2575 14.244C16.3833 14.2848 16.4765 14.3533 16.5427 14.4095C16.6012 14.4591 16.6636 14.5215 16.7211 14.5791C16.7243 14.5823 16.7275 14.5855 16.7307 14.5887L17.9764 15.8344C17.9847 15.8427 17.9926 15.8506 18 15.858C18.0074 15.8506 18.0153 15.8427 18.0236 15.8344L20.7929 13.0651H19.3333C19.0572 13.0651 18.8333 12.8412 18.8333 12.5651Z" fill="#020303"/>
</svg>
