<svg width="32" height="32" viewBox="0 0 32 32" fill="none" xmlns="http://www.w3.org/2000/svg">
<path d="M0 4C0 1.79086 1.79086 0 4 0H28C30.2091 0 32 1.79086 32 4V28C32 30.2091 30.2091 32 28 32H4C1.79086 32 0 30.2091 0 28V4Z" fill="#00A8E5"/>
<path fill-rule="evenodd" clip-rule="evenodd" d="M13.3375 9.86812C13.3454 9.87344 13.3534 9.87877 13.3614 9.88411L20.3939 14.5724C20.5974 14.7081 20.7861 14.8338 20.931 14.9507C21.0822 15.0726 21.2605 15.2418 21.3631 15.4892C21.4987 15.8162 21.4987 16.1837 21.3631 16.5107C21.2605 16.7581 21.0822 16.9272 20.931 17.0492C20.7861 17.166 20.5974 17.2918 20.394 17.4274L13.3375 22.1317C13.0888 22.2975 12.8651 22.4467 12.6753 22.5495C12.4854 22.6524 12.2247 22.77 11.9205 22.7519C11.5313 22.7286 11.1718 22.5362 10.9366 22.2253C10.7527 21.9822 10.706 21.7001 10.6863 21.485C10.6666 21.2701 10.6666 21.0013 10.6666 20.7023L10.6666 11.3263C10.6666 11.3167 10.6666 11.3071 10.6666 11.2975C10.6666 10.9986 10.6666 10.7298 10.6863 10.5148C10.706 10.2997 10.7527 10.0176 10.9366 9.77452C11.1718 9.4636 11.5313 9.2712 11.9205 9.24796C12.2247 9.2298 12.4854 9.34741 12.6753 9.45033C12.8651 9.55317 13.0887 9.70229 13.3375 9.86812Z" fill="white"/>
</svg>
