<svg width="32" height="32" viewBox="0 0 32 32" fill="none" xmlns="http://www.w3.org/2000/svg">
<path d="M4 0.5H28C29.933 0.5 31.5 2.067 31.5 4V28C31.5 29.933 29.933 31.5 28 31.5H4C2.067 31.5 0.5 29.933 0.5 28V4C0.5 2.067 2.067 0.5 4 0.5Z" fill="white"/>
<path d="M4 0.5H28C29.933 0.5 31.5 2.067 31.5 4V28C31.5 29.933 29.933 31.5 28 31.5H4C2.067 31.5 0.5 29.933 0.5 28V4C0.5 2.067 2.067 0.5 4 0.5Z" stroke="#DDECF4"/>
<path fill-rule="evenodd" clip-rule="evenodd" d="M20 11.833C19.1716 11.833 18.5 12.5046 18.5 13.333C18.5 14.1614 19.1716 14.833 20 14.833C20.8284 14.833 21.5 14.1614 21.5 13.333C21.5 12.5046 20.8284 11.833 20 11.833ZM17.55 12.833C17.7816 11.6919 18.7905 10.833 20 10.833C21.3807 10.833 22.5 11.9523 22.5 13.333C22.5 14.7137 21.3807 15.833 20 15.833C18.7905 15.833 17.7816 14.9741 17.55 13.833L10 13.833C9.72386 13.833 9.5 13.6091 9.5 13.333C9.5 13.0569 9.72386 12.833 10 12.833L17.55 12.833ZM12 17.1663C11.1716 17.1663 10.5 17.8379 10.5 18.6663C10.5 19.4948 11.1716 20.1663 12 20.1663C12.8284 20.1663 13.5 19.4948 13.5 18.6663C13.5 17.8379 12.8284 17.1663 12 17.1663ZM9.5 18.6663C9.5 17.2856 10.6193 16.1663 12 16.1663C13.2095 16.1663 14.2184 17.0252 14.45 18.1663L22 18.1663C22.2761 18.1663 22.5 18.3902 22.5 18.6663C22.5 18.9425 22.2761 19.1663 22 19.1663H14.45C14.2184 20.3075 13.2095 21.1663 12 21.1663C10.6193 21.1663 9.5 20.0471 9.5 18.6663Z" fill="#020303"/>
</svg>
